# xmcd
#
# Track frame offsets: 
#        190
#        18565
#        34422
#        56090
#        71912
#        92645
#        117997
#        134412
#        146920
#        163270
#        181450
#        203977
#
# Disc length: 3049 seconds
#
# Revision: 2
# Processed by: cddbd v1.5.2PL0 Copyright (c) Steve Scherf et al.
# Submitted via: ExactAudioCopyFreeDBPlugin 1.0
#
DISCID=c00be70c
DTITLE=Rod Piazza and The Mighty Flyers - Blues In The Dark
DYEAR=1991
DGENRE=Blues
TTITLE0=Too Late Brother
TTITLE1=Bad Bad Boy
TTITLE2=California Blues
TTITLE3=Hear Me Knockin'
TTITLE4=Too Tired
TTITLE5=4811 Wadsworth (Blues For George)
TTITLE6=In The Dark
TTITLE7=The Toddle
TTITLE8=She Wants To Sell My Monkey
TTITLE9=Are You Out There?
TTITLE10=Low Down Dog
TTITLE11=Buzzin'
EXTD=
EXTT0=
EXTT1=
EXTT2=
EXTT3=
EXTT4=
EXTT5=
EXTT6=
EXTT7=
EXTT8=
EXTT9=
EXTT10=
EXTT11=
PLAYORDER=
